Coordinates
version=1
nRows=22
nColumns=24
inDegrees=yes

Units are S.I. units (second, meters, Newtons, ...)
Angles are in degrees.

endheader
time	pelvis_tilt	pelvis_list	pelvis_rotation	pelvis_tx	pelvis_ty	pelvis_tz	hip_flexion_r	hip_adduction_r	hip_rotation_r	knee_angle_r	ankle_angle_r	subtalar_angle_r	mtp_angle_r	hip_flexion_l	hip_adduction_l	hip_rotation_l	knee_angle_l	ankle_angle_l	subtalar_angle_l	mtp_angle_l	lumbar_extension	lumbar_bending	lumbar_rotation
      1.58833333	      5.72535720	      3.64871806	     -4.84755885	      0.43056093	      1.00989285	      0.30938523	      7.03275304	     -4.37516553	      3.10759002	    -63.07335590	     -0.84666065	    -19.11689894	     -3.75514646	      1.60696535	      9.64095691	     -1.68490461	    -12.17716621	      2.03356216	    -13.80342532	      0.11482105	     -5.05916831	     -1.11144348	      5.88328313
      1.59250000	      5.76221699	      3.53383469	     -4.71361703	      0.43514545	      1.01041938	      0.30902099	      7.57973959	     -4.21197384	      3.06577646	    -62.89263269	     -0.32572101	    -19.16584951	     -3.82218562	      1.12865219	      9.56240607	     -1.51420342	    -11.93878239	      2.12161220	    -13.74540513	      0.09225555	     -5.14170811	     -0.97329483	      5.80678402
      1.59666667	      5.82990717	      3.41035750	     -4.57615299	      0.43975086	      1.01098194	      0.30867677	      8.07207995	     -4.04115437	      3.02057136	    -62.65384285	      0.17027887	    -19.17594822	     -3.88613528	      0.60237542	      9.47336572	     -1.33999063	    -11.67456923	      2.20708651	    -13.69515086	      0.06932064	     -5.24296217	     -0.84380483	      5.67018734
      1.60083333	      5.94524551	      3.33781871	     -4.45412732	      0.44433078	      1.01154964	      0.30832514	      8.51433064	     -3.93918174	      2.99004739	    -62.38479554	      0.65172389	    -19.06117315	     -4.03864719	      0.00589917	      9.44873812	     -1.12984529	    -11.35447554	      2.26327700	    -13.71897094	      0.00878120	     -5.42026297	     -0.76892602	      5.38128295
      1.60500000	      5.97158549	      3.20547236	     -4.29382299	      0.44891821	      1.01201586	      0.30797544	      9.02452993	     -3.75335794	      2.93104663	    -62.05481505	      1.08888043	    -19.04165004	     -4.08639096	     -0.46142167	      9.33683998	     -0.95532374	    -11.11815378	      2.34655782	    -13.64959794	     -0.01052496	     -5.46808921	     -0.61679839	      5.29945069
      1.60916667	      6.04508365	      3.10296391	     -4.14182502	      0.45349334	      1.01249663	      0.30762823	      9.47811915	     -3.60890054	      2.87997803	    -61.69622607	      1.56803255	    -18.95688539	     -4.14029932	     -0.98760896	      9.26061275	     -0.77383984	    -10.85774241	      2.44027268	    -13.58892297	     -0.03496760	     -5.58401851	     -0.49862948	      5.13995950
      1.61333333	      6.14029440	      3.02214429	     -3.98944209	      0.45805516	      1.01299156	      0.30725821	      9.90172493	     -3.50363778	      2.81941342	    -61.29616408	      1.96408800	    -18.68030232	     -4.42780992	     -1.56487570	      9.21542315	     -0.51861676	    -10.53151419	      2.44507957	    -13.64968238	     -0.17354048	     -5.73718007	     -0.39839963	      4.78036058
      1.61750000	      6.22333974	      2.92657233	     -3.84631343	      0.46259981	      1.01342340	      0.30694072	     10.32919213	     -3.36227063	      2.78722189	    -60.87016986	      2.40911577	    -18.58050087	     -4.52676192	     -2.09733083	      9.13883303	     -0.36016245	    -10.27470042	      2.58512969	    -13.55546611	     -0.22254599	     -5.87564692	     -0.29184731	      4.64437139
      1.62166667	      6.25006424	      2.82015664	     -3.67351129	      0.46714808	      1.01378128	      0.30660779	     10.79811104	     -3.21019883	      2.71818504	    -60.39362333	      2.79149420	    -18.49103157	     -4.57079542	     -2.55765224	      9.03887706	     -0.18635939	    -10.04116624	      2.67110266	    -13.46841823	     -0.24626953	     -5.93389535	     -0.16370114	      4.53495251
      1.62583333	      6.35738294	      2.74722277	     -3.52368888	      0.47169599	      1.01419828	      0.30628001	     11.17262388	     -3.10748088	      2.67008416	    -59.88508612	      3.16650155	    -18.25409256	     -4.67637193	     -3.13453102	      8.98407663	      0.00269121	     -9.73990002	      2.76232774	    -13.41785835	     -0.30773568	     -6.09128868	     -0.08881835	      4.24644198
      1.63000000	      6.39618491	      2.64459147	     -3.34398761	      0.47622679	      1.01452671	      0.30596004	     11.59803579	     -2.95746496	      2.60609457	    -59.32611028	      3.51326334	    -18.14753452	     -4.74139576	     -3.60831367	      8.88151628	      0.18504130	     -9.50288716	      2.86257541	    -13.33943887	     -0.34610596	     -6.16172954	      0.01790548	      4.09547388
      1.63416667	      6.48536230	      2.56683051	     -3.18264870	      0.48074648	      1.01488783	      0.30563891	     11.96754526	     -2.84867143	      2.54418528	    -58.74462260	      3.83287175	    -17.98296296	     -4.83833119	     -4.15927631	      8.80918961	      0.36412217	     -9.20841574	      2.95253819	    -13.26187514	     -0.40555016	     -6.30486723	      0.11624841	      3.84901075
      1.63833333	      6.48741528	      2.48165708	     -3.00438373	      0.48525120	      1.01511037	      0.30531978	     12.42214401	     -2.72144691	      2.47367928	    -58.13690212	      4.12424987	    -17.91789707	     -4.87594643	     -4.59167661	      8.71653971	      0.53645187	     -8.96194658	      3.04319826	    -13.15881997	     -0.42801285	     -6.34390526	      0.23106042	      3.74610938
      1.64250000	      6.57648285	      2.38959569	     -2.81715034	      0.48976508	      1.01545672	      0.30500538	     12.74742298	     -2.59398818	      2.39331816	    -57.46207921	      4.41643109	    -17.81635929	     -4.93176152	     -5.12912741	      8.61520867	      0.71206345	     -8.69827251	      3.14649336	    -13.06050878	     -0.46232117	     -6.47532822	      0.32682609	      3.52987331
      1.64666667	      6.65068889	      2.32806660	     -2.66084505	      0.49426260	      1.01572042	      0.30471718	     13.09833737	     -2.49909100	      2.33973672	    -56.78340209	      4.63610441	    -17.72615699	     -5.02934883	     -5.66130968	      8.54779679	      0.87283655	     -8.40058426	      3.24867971	    -12.97446386	     -0.52073109	     -6.59288141	      0.39130446	      3.24936319
      1.65083333	      6.68848856	      2.26860521	     -2.48554138	      0.49874189	      1.01591101	      0.30442020	     13.47595866	     -2.40622888	      2.26917546	    -56.07886137	      4.85965910	    -17.68594563	     -5.14328709	     -6.13909888	      8.47453303	      1.04399573	     -8.13178281	      3.34033948	    -12.88240750	     -0.58675559	     -6.67110868	      0.46138547	      3.03493665
      1.65500000	      6.72695703	      2.19474795	     -2.30692878	      0.50321626	      1.01610924	      0.30412914	     13.83213674	     -2.29616346	      2.19443171	    -55.32845699	      5.04952586	    -17.69662574	     -5.24130214	     -6.61671632	      8.38026928	      1.19893770	     -7.86375278	      3.45101971	    -12.76489009	     -0.63899076	     -6.74517876	      0.54803239	      2.85530759
      1.65916667	      6.74545068	      2.12983764	     -2.11849381	      0.50767291	      1.01624210	      0.30383397	     14.20018287	     -2.19965645	      2.10583349	    -54.55846263	      5.24022719	    -17.72156359	     -5.29966671	     -7.05886421	      8.28941765	      1.35193541	     -7.61960566	      3.54227744	    -12.64174949	     -0.66686716	     -6.79773399	      0.62428280	      2.72820683
      1.66333333	      6.78119415	      2.07202432	     -1.94287945	      0.51212344	      1.01638050	      0.30356452	     14.53775139	     -2.10923127	      2.02921206	    -53.75856945	      5.38971392	    -17.78504339	     -5.37009459	     -7.53069648	      8.20489104	      1.49987601	     -7.35030413	      3.64514698	    -12.51550335	     -0.69773235	     -6.87349142	      0.69248170	      2.53916884
      1.66750000	      6.83820448	      2.02060620	     -1.78682178	      0.51655891	      1.01651548	      0.30331861	     14.84583409	     -2.02274646	      1.96982883	    -52.93884740	      5.49129722	    -17.90597431	     -5.49169579	     -8.03469897	      8.12856868	      1.63423234	     -7.05783445	      3.75382512	    -12.38642597	     -0.74815554	     -6.98109636	      0.75046826	      2.28463389
      1.67166667	      6.82346718	      1.97070417	     -1.60075487	      0.52098145	      1.01652724	      0.30303864	     15.21807297	     -1.94635909	      1.87500958	    -52.09944040	      5.62444839	    -17.99978524	     -5.56077812	     -8.43340177	      8.04407447	      1.77800372	     -6.81987188	      3.85028152	    -12.25803656	     -0.77231929	     -6.99371546	      0.81175451	      2.16894495
      1.67583333	      6.84712776	      1.93763446	     -1.44423751	      0.52537318	      1.01656899	      0.30282189	     15.54323604	     -1.87338774	      1.82535694	    -51.24142502	      5.69668380	    -18.22649705	     -5.86791825	     -8.89063475	      7.97867736	      1.91531824	     -6.53898132	      3.92613814	    -12.11452912	     -0.88460689	     -7.07235097	      0.83951867	      1.87685975
